<?xml version="1.0" encoding="UTF-8"?>
<!DOCTYPE svg PUBLIC "-//W3C//DTD SVG 1.1//EN" "http://www.w3.org/Graphics/SVG/1.1/DTD/svg11.dtd">
<svg xmlns="http://www.w3.org/2000/svg" version="1.1" width="400px" height="400px" style="shape-rendering:geometricPrecision; text-rendering:geometricPrecision; image-rendering:optimizeQuality; fill-rule:evenodd; clip-rule:evenodd" xmlns:xlink="http://www.w3.org/1999/xlink">
<g><path style="opacity:1" fill="#fefefe" d="M -0.5,-0.5 C 132.833,-0.5 266.167,-0.5 399.5,-0.5C 399.5,132.833 399.5,266.167 399.5,399.5C 382.5,399.5 365.5,399.5 348.5,399.5C 343.982,382.301 336.649,366.468 326.5,352C 347.081,326.975 357.748,298.141 358.5,265.5C 358.465,256.703 357.465,248.036 355.5,239.5C 353.435,229.029 349.935,219.029 345,209.5C 343.844,201.551 343.178,193.551 343,185.5C 341.867,183.789 340.367,183.289 338.5,184C 335.946,186.063 333.28,187.897 330.5,189.5C 327.245,188.359 323.911,187.526 320.5,187C 302.779,152.946 276.779,127.279 242.5,110C 233.492,106.248 224.159,103.748 214.5,102.5C 211.423,101.144 208.09,100.311 204.5,100C 215.799,89.2069 226.799,78.2069 237.5,67C 231.469,60.8899 224.302,56.3899 216,53.5C 214.401,54.0707 213.234,55.0707 212.5,56.5C 206.608,55.0733 202.441,57.0733 200,62.5C 195.558,73.9373 191.892,85.604 189,97.5C 188.517,96.552 188.351,95.552 188.5,94.5C 190.656,80.583 191.989,66.583 192.5,52.5C 182.519,51.5009 172.519,51.3343 162.5,52C 161.944,52.3826 161.611,52.8826 161.5,53.5C 160.086,55.0542 158.419,56.3875 156.5,57.5C 155.978,58.6074 155.645,59.7741 155.5,61C 159.272,71.4842 162.939,81.9842 166.5,92.5C 160.929,82.4096 155.096,72.4096 149,62.5C 147.981,61.3128 146.814,60.3128 145.5,59.5C 143.21,60.4671 141.21,61.8004 139.5,63.5C 133.044,61.4342 128.21,63.4342 125,69.5C 122.935,72.9597 121.435,76.6264 120.5,80.5C 120.486,82.5925 121.152,84.4259 122.5,86C 129.354,89.592 135.687,93.9253 141.5,99C 91.9591,116.387 63.9591,151.221 57.5,203.5C 51.5662,202.587 47.3995,204.921 45,210.5C 44.3333,214.833 44.3333,219.167 45,223.5C 46.2305,228.153 47.3971,232.82 48.5,237.5C 43.8135,261.245 42.3135,285.245 44,309.5C 47.9028,336.497 60.4028,358.33 81.5,375C 79.754,378.848 78.0873,382.681 76.5,386.5C 63.6318,381.933 55.6318,386.266 52.5,399.5C 34.8333,399.5 17.1667,399.5 -0.5,399.5C -0.5,266.167 -0.5,132.833 -0.5,-0.5 Z"/></g>
<g><path style="opacity:1" fill="#a9a7a6" d="M 161.5,53.5 C 165.606,68.9834 170.606,84.1501 176.5,99C 173.986,100.252 171.32,100.752 168.5,100.5C 168.416,97.6726 167.75,95.006 166.5,92.5C 162.939,81.9842 159.272,71.4842 155.5,61C 155.645,59.7741 155.978,58.6074 156.5,57.5C 158.419,56.3875 160.086,55.0542 161.5,53.5 Z"/></g>
<g><path style="opacity:1" fill="#250a08" d="M 188.5,94.5 C 187.549,95.9187 187.216,97.5853 187.5,99.5C 189.924,99.8076 192.257,99.4742 194.5,98.5C 199.979,84.2161 205.979,70.2161 212.5,56.5C 213.234,55.0707 214.401,54.0707 216,53.5C 224.302,56.3899 231.469,60.8899 237.5,67C 226.799,78.2069 215.799,89.2069 204.5,100C 208.09,100.311 211.423,101.144 214.5,102.5C 210.818,102.665 207.152,102.499 203.5,102C 201.273,101.879 199.44,101.046 198,99.5C 191.263,101.124 184.43,102.124 177.5,102.5C 174.287,102.19 171.287,102.523 168.5,103.5C 163.99,103.271 159.657,103.938 155.5,105.5C 148.733,106.436 142.4,108.436 136.5,111.5C 129.556,113.301 123.556,116.635 118.5,121.5C 111.636,125.027 105.636,129.694 100.5,135.5C 80.8454,156.155 69.8454,180.822 67.5,209.5C 66.3775,211.288 66.2109,213.288 67,215.5C 67.9772,214.226 68.8106,214.226 69.5,215.5C 68.0582,216.82 67.3915,218.486 67.5,220.5C 65.6203,220.771 64.287,220.104 63.5,218.5C 61.9767,215.636 59.6433,213.969 56.5,213.5C 56.7425,218.559 57.4091,223.559 58.5,228.5C 53.5383,259.492 53.3716,290.492 58,321.5C 58.6991,325.917 60.1991,329.917 62.5,333.5C 64.6156,343.075 69.2822,351.075 76.5,357.5C 81.8071,363.158 88.1404,367.325 95.5,370C 90.5526,372.033 88.2193,375.866 88.5,381.5C 87.0285,385.919 86.3618,390.586 86.5,395.5C 86.5,396.833 86.5,398.167 86.5,399.5C 84.1667,399.5 81.8333,399.5 79.5,399.5C 79.4894,397.983 78.8228,396.816 77.5,396C 75.3192,394.16 72.8192,392.993 70,392.5C 66.1179,393.216 64.2846,395.549 64.5,399.5C 63.1667,399.5 61.8333,399.5 60.5,399.5C 61.763,390.07 66.763,387.237 75.5,391C 77.7594,392.715 79.9261,394.548 82,396.5C 82.6014,387.428 84.7681,378.761 88.5,370.5C 70.3401,360.823 59.1734,345.823 55,325.5C 48.9943,293.164 49.1609,260.831 55.5,228.5C 54.4408,222.539 53.7741,216.539 53.5,210.5C 57.1916,209.971 60.3583,210.971 63,213.5C 66.1132,185.627 76.1132,160.627 93,138.5C 110.331,119.749 131.497,107.582 156.5,102C 147,94.5 137.5,87 128,79.5C 127.333,78.5 127.333,77.5 128,76.5C 131.67,71.9983 135.503,67.665 139.5,63.5C 141.21,61.8004 143.21,60.4671 145.5,59.5C 146.814,60.3128 147.981,61.3128 149,62.5C 155.096,72.4096 160.929,82.4096 166.5,92.5C 167.75,95.006 168.416,97.6726 168.5,100.5C 171.32,100.752 173.986,100.252 176.5,99C 170.606,84.1501 165.606,68.9834 161.5,53.5C 161.611,52.8826 161.944,52.3826 162.5,52C 172.519,51.3343 182.519,51.5009 192.5,52.5C 191.989,66.583 190.656,80.583 188.5,94.5 Z"/></g>
<g><path style="opacity:1" fill="#aba9a9" d="M 212.5,56.5 C 205.979,70.2161 199.979,84.2161 194.5,98.5C 192.257,99.4742 189.924,99.8076 187.5,99.5C 187.216,97.5853 187.549,95.9187 188.5,94.5C 188.351,95.552 188.517,96.552 189,97.5C 191.892,85.604 195.558,73.9373 200,62.5C 202.441,57.0733 206.608,55.0733 212.5,56.5 Z"/></g>
<g><path style="opacity:1" fill="#aba9a9" d="M 139.5,63.5 C 135.503,67.665 131.67,71.9983 128,76.5C 127.333,77.5 127.333,78.5 128,79.5C 137.5,87 147,94.5 156.5,102C 131.497,107.582 110.331,119.749 93,138.5C 76.1132,160.627 66.1132,185.627 63,213.5C 60.3583,210.971 57.1916,209.971 53.5,210.5C 53.7741,216.539 54.4408,222.539 55.5,228.5C 49.1609,260.831 48.9943,293.164 55,325.5C 59.1734,345.823 70.3401,360.823 88.5,370.5C 84.7681,378.761 82.6014,387.428 82,396.5C 79.9261,394.548 77.7594,392.715 75.5,391C 66.763,387.237 61.763,390.07 60.5,399.5C 57.8333,399.5 55.1667,399.5 52.5,399.5C 55.6318,386.266 63.6318,381.933 76.5,386.5C 78.0873,382.681 79.754,378.848 81.5,375C 60.4028,358.33 47.9028,336.497 44,309.5C 42.3135,285.245 43.8135,261.245 48.5,237.5C 47.3971,232.82 46.2305,228.153 45,223.5C 44.3333,219.167 44.3333,214.833 45,210.5C 47.3995,204.921 51.5662,202.587 57.5,203.5C 63.9591,151.221 91.9591,116.387 141.5,99C 135.687,93.9253 129.354,89.592 122.5,86C 121.152,84.4259 120.486,82.5925 120.5,80.5C 121.435,76.6264 122.935,72.9597 125,69.5C 128.21,63.4342 133.044,61.4342 139.5,63.5 Z"/></g>
<g><path style="opacity:1" fill="#d4b154" d="M 168.5,103.5 C 171.287,102.523 174.287,102.19 177.5,102.5C 189.049,102.117 200.382,102.784 211.5,104.5C 197.179,103.758 182.846,103.425 168.5,103.5 Z"/></g>
<g><path style="opacity:1" fill="#f5d232" d="M 168.5,103.5 C 182.846,103.425 197.179,103.758 211.5,104.5C 232.521,107.559 251.521,115.392 268.5,128C 290.567,145.559 307.567,167.059 319.5,192.5C 335.059,219.071 339.559,247.404 333,277.5C 331.107,284.29 327.941,290.29 323.5,295.5C 319.557,297.94 316.057,300.94 313,304.5C 312.667,304.167 312.333,303.833 312,303.5C 304.727,308.882 296.56,312.216 287.5,313.5C 284.068,300.302 278.234,288.302 270,277.5C 270.152,272.833 270.652,268.167 271.5,263.5C 271.386,260.783 271.052,258.116 270.5,255.5C 268.745,252.041 269.745,249.541 273.5,248C 271.941,247.02 270.274,246.187 268.5,245.5C 273.388,244.893 278.054,243.893 282.5,242.5C 298.474,235.509 302.308,224.176 294,208.5C 284.881,197.941 274.048,195.774 261.5,202C 249.916,211.925 248.582,223.092 257.5,235.5C 257.624,237.582 258.624,239.082 260.5,240C 259.552,240.483 258.552,240.649 257.5,240.5C 257.281,241.675 257.614,242.675 258.5,243.5C 262.225,240.601 264.892,241.434 266.5,246C 265.227,248.758 263.56,249.091 261.5,247C 262.993,245.844 262.826,245.01 261,244.5C 258.602,245.999 255.935,246.666 253,246.5C 249.064,246.273 245.23,245.607 241.5,244.5C 238.862,241.379 235.528,239.212 231.5,238C 224.574,236.661 217.574,236.161 210.5,236.5C 208.801,236.34 207.134,236.506 205.5,237C 202.631,238.539 200.465,240.039 199,241.5C 195.795,240.21 194.962,241.21 196.5,244.5C 195.271,245.281 193.938,245.781 192.5,246C 191.359,246.741 191.359,247.575 192.5,248.5C 190.704,249.141 189.204,250.141 188,251.5C 186.482,248.246 184.315,247.746 181.5,250C 182.938,250.219 184.271,250.719 185.5,251.5C 181.376,252.693 177.376,253.859 173.5,255C 173.982,253.992 174.148,252.825 174,251.5C 174.333,251.833 174.667,252.167 175,252.5C 176.074,251.382 177.24,250.382 178.5,249.5C 176.956,248.378 175.623,248.711 174.5,250.5C 173.386,249.277 173.219,247.944 174,246.5C 174.654,247.696 175.154,247.696 175.5,246.5C 173.989,244.162 174.323,243.496 176.5,244.5C 177.216,243.689 178.05,243.022 179,242.5C 181.677,243.851 184.343,245.184 187,246.5C 188.307,245.228 189.807,244.228 191.5,243.5C 187.212,243.075 182.878,241.908 178.5,240C 179.167,239.667 179.833,239.333 180.5,239C 179.234,236.617 178.568,233.95 178.5,231C 178.667,228.5 178.833,226 179,223.5C 180.073,224.28 181.24,224.113 182.5,223C 182.035,220.036 180.368,218.203 177.5,217.5C 176.353,217.818 175.519,218.484 175,219.5C 174.855,216.509 173.355,214.842 170.5,214.5C 163.083,205.921 153.749,203.088 142.5,206C 125.8,211.226 119.967,222.393 125,239.5C 126.259,242.356 127.759,245.023 129.5,247.5C 125.033,247.647 120.367,247.814 115.5,248C 114.584,248.278 113.918,248.778 113.5,249.5C 111.254,250.455 108.921,251.122 106.5,251.5C 106.205,246.57 106.038,241.57 106,236.5C 105.333,235.167 104.667,233.833 104,232.5C 106.79,217.273 101.123,212.273 87,217.5C 84.5246,214.353 82.0246,211.186 79.5,208C 74.8234,207.752 70.9901,209.585 68,213.5C 67.51,212.207 67.3433,210.873 67.5,209.5C 69.8454,180.822 80.8454,156.155 100.5,135.5C 102.394,134.952 104.06,133.952 105.5,132.5C 106.196,135.556 107.03,138.556 108,141.5C 108.816,142.823 109.983,143.489 111.5,143.5C 114.167,143.5 116.833,143.5 119.5,143.5C 122.188,142.976 123.688,141.309 124,138.5C 124.941,136.011 124.441,134.011 122.5,132.5C 121.167,132.5 120.5,131.833 120.5,130.5C 118.695,128.803 116.361,127.97 113.5,128C 114.417,124.159 115.75,123.826 117.5,127C 118.5,127.667 119.5,127.667 120.5,127C 118.327,125.447 117.66,123.614 118.5,121.5C 123.556,116.635 129.556,113.301 136.5,111.5C 142.339,109.589 148.339,108.256 154.5,107.5C 154.863,106.817 155.196,106.15 155.5,105.5C 159.657,103.938 163.99,103.271 168.5,103.5 Z"/></g>
<g><path style="opacity:1" fill="#dab74c" d="M 155.5,105.5 C 155.196,106.15 154.863,106.817 154.5,107.5C 148.339,108.256 142.339,109.589 136.5,111.5C 142.4,108.436 148.733,106.436 155.5,105.5 Z"/></g>
<g><path style="opacity:1" fill="#311811" d="M 214.5,102.5 C 224.159,103.748 233.492,106.248 242.5,110C 276.779,127.279 302.779,152.946 320.5,187C 323.911,187.526 327.245,188.359 330.5,189.5C 333.28,187.897 335.946,186.063 338.5,184C 340.367,183.289 341.867,183.789 343,185.5C 343.178,193.551 343.844,201.551 345,209.5C 349.935,219.029 353.435,229.029 355.5,239.5C 354.521,242.625 354.187,245.958 354.5,249.5C 353.316,245.539 352.316,241.539 351.5,237.5C 351.5,236.167 351.5,234.833 351.5,233.5C 349.188,224.539 346.022,215.872 342,207.5C 341.496,200.788 340.662,194.122 339.5,187.5C 337.812,188.521 336.479,189.855 335.5,191.5C 334.469,192.355 333.303,193.022 332,193.5C 329.846,192.726 327.679,192.059 325.5,191.5C 325.083,190.876 324.416,190.543 323.5,190.5C 322.133,191.225 320.8,191.892 319.5,192.5C 307.567,167.059 290.567,145.559 268.5,128C 251.521,115.392 232.521,107.559 211.5,104.5C 200.382,102.784 189.049,102.117 177.5,102.5C 184.43,102.124 191.263,101.124 198,99.5C 199.44,101.046 201.273,101.879 203.5,102C 207.152,102.499 210.818,102.665 214.5,102.5 Z"/></g>
<g><path style="opacity:1" fill="#fcf9e5" d="M 129.5,127.5 C 132.082,127.025 134.082,127.692 135.5,129.5C 135.241,133.068 133.241,134.401 129.5,133.5C 129.5,131.5 129.5,129.5 129.5,127.5 Z"/></g>
<g><path style="opacity:1" fill="#eece46" d="M 118.5,121.5 C 117.66,123.614 118.327,125.447 120.5,127C 119.5,127.667 118.5,127.667 117.5,127C 115.75,123.826 114.417,124.159 113.5,128C 116.361,127.97 118.695,128.803 120.5,130.5C 109.621,129.991 106.621,134.325 111.5,143.5C 109.983,143.489 108.816,142.823 108,141.5C 107.03,138.556 106.196,135.556 105.5,132.5C 104.06,133.952 102.394,134.952 100.5,135.5C 105.636,129.694 111.636,125.027 118.5,121.5 Z"/></g>
<g><path style="opacity:1" fill="#fdfcf3" d="M 120.5,130.5 C 120.5,131.833 121.167,132.5 122.5,132.5C 123.193,136.753 122.193,140.419 119.5,143.5C 116.833,143.5 114.167,143.5 111.5,143.5C 106.621,134.325 109.621,129.991 120.5,130.5 Z"/></g>
<g><path style="opacity:1" fill="#f1e077" d="M 129.5,127.5 C 129.5,129.5 129.5,131.5 129.5,133.5C 133.241,134.401 135.241,133.068 135.5,129.5C 136.817,134.345 134.817,136.178 129.5,135C 127.065,132.208 127.065,129.708 129.5,127.5 Z"/></g>
<g><path style="opacity:1" fill="#f9efb1" d="M 122.5,132.5 C 124.441,134.011 124.941,136.011 124,138.5C 123.688,141.309 122.188,142.976 119.5,143.5C 122.193,140.419 123.193,136.753 122.5,132.5 Z"/></g>
<g><path style="opacity:1" fill="#f4d131" d="M 328.5,203.5 C 326.64,199.615 324.64,195.781 322.5,192C 323.448,191.517 324.448,191.351 325.5,191.5C 327.679,192.059 329.846,192.726 332,193.5C 333.303,193.022 334.469,192.355 335.5,191.5C 336.496,191.586 337.329,191.252 338,190.5C 338.414,195.234 337.914,199.901 336.5,204.5C 336.833,206.167 337.167,207.833 337.5,209.5C 338.308,207.577 338.808,205.577 339,203.5C 341.337,207.477 340.504,210.643 336.5,213C 337.923,215.62 337.757,218.12 336,220.5C 334.595,216.979 333.762,213.312 333.5,209.5C 334.839,206.312 335.339,202.978 335,199.5C 334.522,203.816 332.356,205.15 328.5,203.5 Z"/></g>
<g><path style="opacity:1" fill="#ebc741" d="M 351.5,233.5 C 349.302,228.175 346.802,222.842 344,217.5C 343.781,218.938 343.281,220.271 342.5,221.5C 341.914,221.291 341.414,220.957 341,220.5C 340.71,222.044 340.044,223.377 339,224.5C 340.243,240.792 340.576,257.125 340,273.5C 338.53,275.631 337.03,277.631 335.5,279.5C 341.739,253.404 339.406,228.071 328.5,203.5C 332.356,205.15 334.522,203.816 335,199.5C 335.339,202.978 334.839,206.312 333.5,209.5C 333.762,213.312 334.595,216.979 336,220.5C 337.757,218.12 337.923,215.62 336.5,213C 340.504,210.643 341.337,207.477 339,203.5C 338.808,205.577 338.308,207.577 337.5,209.5C 337.167,207.833 336.833,206.167 336.5,204.5C 337.914,199.901 338.414,195.234 338,190.5C 337.329,191.252 336.496,191.586 335.5,191.5C 336.479,189.855 337.812,188.521 339.5,187.5C 340.662,194.122 341.496,200.788 342,207.5C 346.022,215.872 349.188,224.539 351.5,233.5 Z"/></g>
<g><path style="opacity:1" fill="#311813" d="M 170.5,214.5 C 175.582,223.266 176.749,232.599 174,242.5C 169.638,249.422 163.471,253.422 155.5,254.5C 150.833,254.5 146.167,254.5 141.5,254.5C 137.24,252.7 133.24,250.367 129.5,247.5C 127.759,245.023 126.259,242.356 125,239.5C 119.967,222.393 125.8,211.226 142.5,206C 153.749,203.088 163.083,205.921 170.5,214.5 Z"/></g>
<g><path style="opacity:1" fill="#f5d231" d="M 102.5,236.5 C 102.529,240.14 101.529,243.473 99.5,246.5C 100.1,249.349 101.433,251.682 103.5,253.5C 106.554,261.942 109.887,270.275 113.5,278.5C 114.457,282.094 115.124,285.76 115.5,289.5C 114.295,293.573 114.795,297.573 117,301.5C 117.333,301.167 117.667,300.833 118,300.5C 120.314,314.933 119.981,329.267 117,343.5C 112.587,353.957 104.753,359.957 93.5,361.5C 87.6545,360.543 81.9878,359.21 76.5,357.5C 69.2822,351.075 64.6156,343.075 62.5,333.5C 57.7129,315.864 55.7129,297.864 56.5,279.5C 56.2686,262.742 57.2686,246.075 59.5,229.5C 59.0814,224.814 58.9147,220.147 59,215.5C 59.9078,217.439 61.4078,218.439 63.5,218.5C 64.287,220.104 65.6203,220.771 67.5,220.5C 67.3915,218.486 68.0582,216.82 69.5,215.5C 77.7886,207.804 82.1219,209.804 82.5,221.5C 85.7935,221.741 88.7935,220.908 91.5,219C 94.1667,218.333 96.8333,218.333 99.5,219C 100.018,224.968 101.018,230.801 102.5,236.5 Z"/></g>
<g><path style="opacity:1" fill="#392017" d="M 282.5,242.5 C 272.855,244.327 264.522,241.994 257.5,235.5C 248.582,223.092 249.916,211.925 261.5,202C 274.048,195.774 284.881,197.941 294,208.5C 302.308,224.176 298.474,235.509 282.5,242.5 Z"/></g>
<g><path style="opacity:1" fill="#faf9f8" d="M 270.5,200.5 C 282.436,199.543 290.603,204.543 295,215.5C 297.186,235.309 288.352,243.476 268.5,240C 256.816,235.006 252.316,226.172 255,213.5C 257.772,206.212 262.939,201.878 270.5,200.5 Z"/></g>
<g><path style="opacity:1" fill="#b98a34" d="M 102.5,236.5 C 103.147,237.274 103.48,238.274 103.5,239.5C 103.125,241.916 102.459,244.25 101.5,246.5C 102.173,248.851 102.84,251.184 103.5,253.5C 101.433,251.682 100.1,249.349 99.5,246.5C 101.529,243.473 102.529,240.14 102.5,236.5 Z"/></g>
<g><path style="opacity:1" fill="#dfbd50" d="M 351.5,237.5 C 352.316,241.539 353.316,245.539 354.5,249.5C 354.667,260.505 354.5,271.505 354,282.5C 353.721,285.457 352.887,288.123 351.5,290.5C 352.816,272.835 352.816,255.168 351.5,237.5 Z"/></g>
<g><path style="opacity:1" fill="#f5d231" d="M 351.5,233.5 C 351.5,234.833 351.5,236.167 351.5,237.5C 352.816,255.168 352.816,272.835 351.5,290.5C 349.308,303.741 345.308,316.408 339.5,328.5C 332.594,336.074 323.927,339.074 313.5,337.5C 312.153,336.972 310.819,336.805 309.5,337C 314.453,342.107 318.786,347.607 322.5,353.5C 329.252,367.978 332.585,383.311 332.5,399.5C 250.5,399.5 168.5,399.5 86.5,399.5C 86.5,398.167 86.5,396.833 86.5,395.5C 87.9715,391.081 88.6382,386.414 88.5,381.5C 90.3801,378.403 91.7135,375.07 92.5,371.5C 104.238,371.743 114.238,367.743 122.5,359.5C 123.127,358.583 123.461,357.583 123.5,356.5C 125.22,353.008 126.554,349.341 127.5,345.5C 128.966,344.653 129.8,343.32 130,341.5C 130.173,337.459 130.673,333.459 131.5,329.5C 143.356,336.102 156.023,339.769 169.5,340.5C 171.54,342.177 173.54,343.844 175.5,345.5C 176.543,348.056 178.21,350.223 180.5,352C 185.79,355.262 191.457,357.428 197.5,358.5C 216.927,362.959 236.261,362.126 255.5,356C 263.082,353.198 270.082,349.364 276.5,344.5C 278.522,340.806 280.522,337.139 282.5,333.5C 295.614,326.711 307.614,318.378 318.5,308.5C 319.386,307.675 319.719,306.675 319.5,305.5C 326.351,297.804 331.684,289.138 335.5,279.5C 337.03,277.631 338.53,275.631 340,273.5C 340.576,257.125 340.243,240.792 339,224.5C 340.044,223.377 340.71,222.044 341,220.5C 341.414,220.957 341.914,221.291 342.5,221.5C 343.281,220.271 343.781,218.938 344,217.5C 346.802,222.842 349.302,228.175 351.5,233.5 Z"/></g>
<g><path style="opacity:1" fill="#d8b54a" d="M 63.5,218.5 C 61.4078,218.439 59.9078,217.439 59,215.5C 58.9147,220.147 59.0814,224.814 59.5,229.5C 57.2686,246.075 56.2686,262.742 56.5,279.5C 55.7129,297.864 57.7129,315.864 62.5,333.5C 60.1991,329.917 58.6991,325.917 58,321.5C 53.3716,290.492 53.5383,259.492 58.5,228.5C 57.4091,223.559 56.7425,218.559 56.5,213.5C 59.6433,213.969 61.9767,215.636 63.5,218.5 Z"/></g>
<g><path style="opacity:1" fill="#2b120f" d="M 355.5,239.5 C 357.465,248.036 358.465,256.703 358.5,265.5C 357.748,298.141 347.081,326.975 326.5,352C 336.649,366.468 343.982,382.301 348.5,399.5C 346.833,399.5 345.167,399.5 343.5,399.5C 342.61,393.834 340.943,388.5 338.5,383.5C 335.229,372.284 329.895,362.284 322.5,353.5C 318.786,347.607 314.453,342.107 309.5,337C 310.819,336.805 312.153,336.972 313.5,337.5C 316.796,341.298 320.296,344.964 324,348.5C 330.171,342.51 335.337,335.843 339.5,328.5C 345.308,316.408 349.308,303.741 351.5,290.5C 352.887,288.123 353.721,285.457 354,282.5C 354.5,271.505 354.667,260.505 354.5,249.5C 354.187,245.958 354.521,242.625 355.5,239.5 Z"/></g>
<g><path style="opacity:1" fill="#e0a82f" d="M 319.5,305.5 C 319.719,306.675 319.386,307.675 318.5,308.5C 307.614,318.378 295.614,326.711 282.5,333.5C 283.77,329.793 285.437,326.293 287.5,323C 299.541,319.483 310.208,313.65 319.5,305.5 Z"/></g>
<g><path style="opacity:1" fill="#d19b39" d="M 117.5,289.5 C 124.512,307.423 127.012,326.09 125,345.5C 124.76,347.852 123.927,349.852 122.5,351.5C 123.577,340.193 123.743,328.86 123,317.5C 120.165,315.005 119.665,312.005 121.5,308.5C 120.155,302.161 118.822,295.828 117.5,289.5 Z"/></g>
<g><path style="opacity:1" fill="#dda631" d="M 339.5,328.5 C 335.337,335.843 330.171,342.51 324,348.5C 320.296,344.964 316.796,341.298 313.5,337.5C 323.927,339.074 332.594,336.074 339.5,328.5 Z"/></g>
<g><path style="opacity:1" fill="#2d0f07" d="M 325.5,191.5 C 324.448,191.351 323.448,191.517 322.5,192C 324.64,195.781 326.64,199.615 328.5,203.5C 339.406,228.071 341.739,253.404 335.5,279.5C 331.684,289.138 326.351,297.804 319.5,305.5C 310.208,313.65 299.541,319.483 287.5,323C 285.437,326.293 283.77,329.793 282.5,333.5C 274.852,341.156 265.852,346.489 255.5,349.5C 232.577,355.269 209.577,355.769 186.5,351C 182.807,349.153 179.14,347.32 175.5,345.5C 173.54,343.844 171.54,342.177 169.5,340.5C 167.625,337.412 166.292,334.078 165.5,330.5C 153.394,331.019 141.727,329.019 130.5,324.5C 129.955,331.607 128.955,338.607 127.5,345.5C 126.554,349.341 125.22,353.008 123.5,356.5C 122.425,357.562 121.425,357.562 120.5,356.5C 121.456,354.925 122.123,353.258 122.5,351.5C 123.927,349.852 124.76,347.852 125,345.5C 127.012,326.09 124.512,307.423 117.5,289.5C 116.918,285.468 115.584,281.801 113.5,278.5C 109.887,270.275 106.554,261.942 103.5,253.5C 102.84,251.184 102.173,248.851 101.5,246.5C 102.459,244.25 103.125,241.916 103.5,239.5C 103.48,238.274 103.147,237.274 102.5,236.5C 101.018,230.801 100.018,224.968 99.5,219C 96.8333,218.333 94.1667,218.333 91.5,219C 88.7935,220.908 85.7935,221.741 82.5,221.5C 82.1219,209.804 77.7886,207.804 69.5,215.5C 68.8106,214.226 67.9772,214.226 67,215.5C 66.2109,213.288 66.3775,211.288 67.5,209.5C 67.3433,210.873 67.51,212.207 68,213.5C 70.9901,209.585 74.8234,207.752 79.5,208C 82.0246,211.186 84.5246,214.353 87,217.5C 101.123,212.273 106.79,217.273 104,232.5C 104.667,233.833 105.333,235.167 106,236.5C 106.038,241.57 106.205,246.57 106.5,251.5C 106.833,252.167 107.167,252.833 107.5,253.5C 110.658,262.32 113.992,270.987 117.5,279.5C 119.465,285.744 121.799,291.744 124.5,297.5C 124.833,299.5 125.167,301.5 125.5,303.5C 127.239,309.026 128.405,314.693 129,320.5C 134.745,323.645 140.911,325.312 147.5,325.5C 151.943,326.801 156.609,327.468 161.5,327.5C 162.833,327.5 164.167,327.5 165.5,327.5C 165.5,324.5 165.5,321.5 165.5,318.5C 167.256,308.797 169.256,299.13 171.5,289.5C 168.507,285.664 165.673,281.664 163,277.5C 161.868,272.116 162.702,267.116 165.5,262.5C 174.196,256.987 183.53,252.82 193.5,250C 198.226,244.085 203.892,239.585 210.5,236.5C 217.574,236.161 224.574,236.661 231.5,238C 235.528,239.212 238.862,241.379 241.5,244.5C 242.6,245.558 243.934,246.392 245.5,247C 251.855,248.226 258.188,249.559 264.5,251C 266.66,252.332 268.66,253.832 270.5,255.5C 271.052,258.116 271.386,260.783 271.5,263.5C 270.652,268.167 270.152,272.833 270,277.5C 278.234,288.302 284.068,300.302 287.5,313.5C 287.5,315.5 287.5,317.5 287.5,319.5C 302.504,315.8 314.504,307.8 323.5,295.5C 327.941,290.29 331.107,284.29 333,277.5C 339.559,247.404 335.059,219.071 319.5,192.5C 320.8,191.892 322.133,191.225 323.5,190.5C 324.416,190.543 325.083,190.876 325.5,191.5 Z"/></g>
<g><path style="opacity:1" fill="#e5ab2c" d="M 169.5,340.5 C 156.023,339.769 143.356,336.102 131.5,329.5C 130.673,333.459 130.173,337.459 130,341.5C 129.8,343.32 128.966,344.653 127.5,345.5C 128.955,338.607 129.955,331.607 130.5,324.5C 141.727,329.019 153.394,331.019 165.5,330.5C 166.292,334.078 167.625,337.412 169.5,340.5 Z"/></g>
<g><path style="opacity:1" fill="#dab076" d="M 273.5,289.5 C 281.017,299.22 284.184,310.22 283,322.5C 282.71,324.952 282.044,327.285 281,329.5C 275.91,336.26 269.41,341.093 261.5,344C 236.437,352.767 211.104,353.767 185.5,347C 176.868,344.037 171.368,338.203 169,329.5C 168.278,321.615 168.778,313.949 170.5,306.5C 170.144,314.238 170.644,321.905 172,329.5C 177.87,338.864 186.37,344.364 197.5,346C 210.5,346.667 223.5,346.667 236.5,346C 248.183,344.322 259.183,340.656 269.5,335C 276.531,328.743 279.531,320.91 278.5,311.5C 278.333,308.167 278.167,304.833 278,301.5C 275.636,297.781 274.136,293.781 273.5,289.5 Z"/></g>
<g><path style="opacity:1" fill="#9d6b2c" d="M 147.5,325.5 C 152.414,325.362 157.081,326.028 161.5,327.5C 156.609,327.468 151.943,326.801 147.5,325.5 Z"/></g>
<g><path style="opacity:1" fill="#dea62c" d="M 125.5,303.5 C 134.661,317.249 147.661,323.916 164.5,323.5C 164.216,321.585 164.549,319.919 165.5,318.5C 165.5,321.5 165.5,324.5 165.5,327.5C 164.167,327.5 162.833,327.5 161.5,327.5C 157.081,326.028 152.414,325.362 147.5,325.5C 140.911,325.312 134.745,323.645 129,320.5C 128.405,314.693 127.239,309.026 125.5,303.5 Z"/></g>
<g><path style="opacity:1" fill="#dea72f" d="M 323.5,295.5 C 314.504,307.8 302.504,315.8 287.5,319.5C 287.5,317.5 287.5,315.5 287.5,313.5C 296.56,312.216 304.727,308.882 312,303.5C 312.333,303.833 312.667,304.167 313,304.5C 316.057,300.94 319.557,297.94 323.5,295.5 Z"/></g>
<g><path style="opacity:1" fill="#efc647" d="M 135.5,271.5 C 132.405,276.888 127.738,280.055 121.5,281C 122.747,282.458 122.747,283.958 121.5,285.5C 122.376,286.251 123.376,286.751 124.5,287C 123.422,287.674 122.755,288.674 122.5,290C 123.86,292.27 124.527,294.77 124.5,297.5C 121.799,291.744 119.465,285.744 117.5,279.5C 124.482,279.008 130.482,276.342 135.5,271.5 Z"/></g>
<g><path style="opacity:1" fill="#f39d62" d="M 135.5,255.5 C 136.117,255.611 136.617,255.944 137,256.5C 137.667,260.833 137.667,265.167 137,269.5C 136.722,270.416 136.222,271.082 135.5,271.5C 136.775,266.153 136.775,260.82 135.5,255.5 Z"/></g>
<g><path style="opacity:1" fill="#f9b05a" d="M 319.5,256.5 C 314.507,259.584 309.173,260.251 303.5,258.5C 309.057,258.847 314.39,258.18 319.5,256.5 Z"/></g>
<g><path style="opacity:1" fill="#f5d132" d="M 141.5,254.5 C 146.167,254.5 150.833,254.5 155.5,254.5C 161.939,253.625 165.272,256.291 165.5,262.5C 162.702,267.116 161.868,272.116 163,277.5C 165.673,281.664 168.507,285.664 171.5,289.5C 169.256,299.13 167.256,308.797 165.5,318.5C 164.549,319.919 164.216,321.585 164.5,323.5C 147.661,323.916 134.661,317.249 125.5,303.5C 125.167,301.5 124.833,299.5 124.5,297.5C 124.527,294.77 123.86,292.27 122.5,290C 122.755,288.674 123.422,287.674 124.5,287C 123.376,286.751 122.376,286.251 121.5,285.5C 122.747,283.958 122.747,282.458 121.5,281C 127.738,280.055 132.405,276.888 135.5,271.5C 136.222,271.082 136.722,270.416 137,269.5C 137.667,265.167 137.667,260.833 137,256.5C 136.617,255.944 136.117,255.611 135.5,255.5C 135.369,254.624 135.702,253.957 136.5,253.5C 138.071,254.309 139.738,254.643 141.5,254.5 Z"/></g>
<g><path style="opacity:1" fill="#fc8489" d="M 128.5,250.5 C 131.135,251.811 133.469,253.478 135.5,255.5C 136.775,260.82 136.775,266.153 135.5,271.5C 130.482,276.342 124.482,279.008 117.5,279.5C 113.992,270.987 110.658,262.32 107.5,253.5C 114.178,250.783 121.178,249.783 128.5,250.5 Z"/></g>
<g><path style="opacity:1" fill="#f49570" d="M 128.5,250.5 C 121.178,249.783 114.178,250.783 107.5,253.5C 107.167,252.833 106.833,252.167 106.5,251.5C 108.921,251.122 111.254,250.455 113.5,249.5C 118.755,247.878 123.755,248.212 128.5,250.5 Z"/></g>
<g><path style="opacity:1" fill="#f49b64" d="M 324.5,239.5 C 325.643,242.976 325.81,246.642 325,250.5C 323.924,253.079 322.091,254.746 319.5,255.5C 321.112,253.702 322.612,251.702 324,249.5C 324.498,246.183 324.665,242.85 324.5,239.5 Z"/></g>
<g><path style="opacity:1" fill="#efcc3a" d="M 170.5,214.5 C 173.355,214.842 174.855,216.509 175,219.5C 175.519,218.484 176.353,217.818 177.5,217.5C 180.368,218.203 182.035,220.036 182.5,223C 181.24,224.113 180.073,224.28 179,223.5C 178.833,226 178.667,228.5 178.5,231C 178.568,233.95 179.234,236.617 180.5,239C 179.833,239.333 179.167,239.667 178.5,240C 182.878,241.908 187.212,243.075 191.5,243.5C 189.807,244.228 188.307,245.228 187,246.5C 184.343,245.184 181.677,243.851 179,242.5C 178.05,243.022 177.216,243.689 176.5,244.5C 174.323,243.496 173.989,244.162 175.5,246.5C 175.154,247.696 174.654,247.696 174,246.5C 173.219,247.944 173.386,249.277 174.5,250.5C 175.623,248.711 176.956,248.378 178.5,249.5C 177.24,250.382 176.074,251.382 175,252.5C 174.667,252.167 174.333,251.833 174,251.5C 174.148,252.825 173.982,253.992 173.5,255C 177.376,253.859 181.376,252.693 185.5,251.5C 184.271,250.719 182.938,250.219 181.5,250C 184.315,247.746 186.482,248.246 188,251.5C 189.204,250.141 190.704,249.141 192.5,248.5C 191.359,247.575 191.359,246.741 192.5,246C 193.938,245.781 195.271,245.281 196.5,244.5C 194.962,241.21 195.795,240.21 199,241.5C 200.465,240.039 202.631,238.539 205.5,237C 207.134,236.506 208.801,236.34 210.5,236.5C 203.892,239.585 198.226,244.085 193.5,250C 183.53,252.82 174.196,256.987 165.5,262.5C 165.272,256.291 161.939,253.625 155.5,254.5C 163.471,253.422 169.638,249.422 174,242.5C 176.749,232.599 175.582,223.266 170.5,214.5 Z"/></g>
<g><path style="opacity:1" fill="#ebc83e" d="M 257.5,235.5 C 264.522,241.994 272.855,244.327 282.5,242.5C 278.054,243.893 273.388,244.893 268.5,245.5C 270.274,246.187 271.941,247.02 273.5,248C 269.745,249.541 268.745,252.041 270.5,255.5C 268.66,253.832 266.66,252.332 264.5,251C 258.188,249.559 251.855,248.226 245.5,247C 243.934,246.392 242.6,245.558 241.5,244.5C 245.23,245.607 249.064,246.273 253,246.5C 255.935,246.666 258.602,245.999 261,244.5C 262.826,245.01 262.993,245.844 261.5,247C 263.56,249.091 265.227,248.758 266.5,246C 264.892,241.434 262.225,240.601 258.5,243.5C 257.614,242.675 257.281,241.675 257.5,240.5C 258.552,240.649 259.552,240.483 260.5,240C 258.624,239.082 257.624,237.582 257.5,235.5 Z"/></g>
<g><path style="opacity:1" fill="#f1b754" d="M 129.5,247.5 C 133.24,250.367 137.24,252.7 141.5,254.5C 139.738,254.643 138.071,254.309 136.5,253.5C 135.702,253.957 135.369,254.624 135.5,255.5C 133.469,253.478 131.135,251.811 128.5,250.5C 123.755,248.212 118.755,247.878 113.5,249.5C 113.918,248.778 114.584,248.278 115.5,248C 120.367,247.814 125.033,247.647 129.5,247.5 Z"/></g>
<g><path style="opacity:1" fill="#f88e7a" d="M 303.5,232.5 C 301.027,234.052 298.86,236.052 297,238.5C 296.333,241.167 296.333,243.833 297,246.5C 297.333,245.167 297.667,243.833 298,242.5C 298.711,244.899 298.544,247.232 297.5,249.5C 298.592,250.831 299.926,251.664 301.5,252C 300.663,253.011 300.33,254.178 300.5,255.5C 294.847,251.708 293.014,246.375 295,239.5C 296.5,237.333 298,235.167 299.5,233C 300.793,232.51 302.127,232.343 303.5,232.5 Z"/></g>
<g><path style="opacity:1" fill="#fdefaa" d="M 273.5,289.5 C 274.136,293.781 275.636,297.781 278,301.5C 278.167,304.833 278.333,308.167 278.5,311.5C 279.531,320.91 276.531,328.743 269.5,335C 259.183,340.656 248.183,344.322 236.5,346C 223.5,346.667 210.5,346.667 197.5,346C 186.37,344.364 177.87,338.864 172,329.5C 170.644,321.905 170.144,314.238 170.5,306.5C 171.37,300.818 172.37,295.151 173.5,289.5C 173.333,288.167 173.167,286.833 173,285.5C 163.594,275.92 164.428,267.42 175.5,260C 186.366,257.237 195.7,251.904 203.5,244C 211.289,239.209 219.622,238.209 228.5,241C 234.089,243.599 239.423,246.599 244.5,250C 251.298,250.786 257.965,252.12 264.5,254C 270.253,259.029 271.087,264.863 267,271.5C 266.333,273.833 266.333,276.167 267,278.5C 270.198,281.563 272.364,285.229 273.5,289.5 Z"/></g>
<g><path style="opacity:1" fill="#2f1a0e" d="M 205.5,251.5 C 207.258,251.877 208.925,252.544 210.5,253.5C 211.833,254.5 211.833,255.5 210.5,256.5C 207.788,255.788 206.121,254.121 205.5,251.5 Z"/></g>
<g><path style="opacity:1" fill="#301c0f" d="M 231.5,249.5 C 232.5,249.5 233.5,249.5 234.5,249.5C 234.5,252.833 232.833,254.5 229.5,254.5C 229.392,252.486 230.058,250.82 231.5,249.5 Z"/></g>
<g><path style="opacity:1" fill="#fd8589" d="M 324.5,239.5 C 324.665,242.85 324.498,246.183 324,249.5C 322.612,251.702 321.112,253.702 319.5,255.5C 319.5,255.833 319.5,256.167 319.5,256.5C 314.39,258.18 309.057,258.847 303.5,258.5C 302.5,257.5 301.5,256.5 300.5,255.5C 300.33,254.178 300.663,253.011 301.5,252C 299.926,251.664 298.592,250.831 297.5,249.5C 298.544,247.232 298.711,244.899 298,242.5C 297.667,243.833 297.333,245.167 297,246.5C 296.333,243.833 296.333,241.167 297,238.5C 298.86,236.052 301.027,234.052 303.5,232.5C 311.849,230.496 318.849,232.829 324.5,239.5 Z"/></g>
<g><path style="opacity:1" fill="#210807" d="M 261.5,215.5 C 269.605,216.543 271.272,220.377 266.5,227C 259.676,227.494 257.176,224.328 259,217.5C 259.995,216.934 260.828,216.267 261.5,215.5 Z"/></g>
<g><path style="opacity:1" fill="#fafaf9" d="M 142.5,207.5 C 164.594,206.094 174.761,216.428 173,238.5C 170.42,245.873 165.254,250.04 157.5,251C 133.222,254.723 123.056,244.556 127,220.5C 130.843,214.482 136.01,210.149 142.5,207.5 Z"/></g>
<g><path style="opacity:1" fill="#271212" d="M 159.5,221.5 C 169.106,222.588 170.772,226.754 164.5,234C 158.366,233.854 155.866,230.688 157,224.5C 158.045,223.627 158.878,222.627 159.5,221.5 Z"/></g>
<g><path style="opacity:1" fill="#e5ab2a" d="M 282.5,333.5 C 280.522,337.139 278.522,340.806 276.5,344.5C 270.082,349.364 263.082,353.198 255.5,356C 236.261,362.126 216.927,362.959 197.5,358.5C 198.473,358.013 199.473,357.513 200.5,357C 215.885,356.771 231.218,355.771 246.5,354C 249.648,352.576 252.648,351.076 255.5,349.5C 265.852,346.489 274.852,341.156 282.5,333.5 Z"/></g>
<g><path style="opacity:1" fill="#dea634" d="M 175.5,345.5 C 179.14,347.32 182.807,349.153 186.5,351C 209.577,355.769 232.577,355.269 255.5,349.5C 252.648,351.076 249.648,352.576 246.5,354C 231.218,355.771 215.885,356.771 200.5,357C 199.473,357.513 198.473,358.013 197.5,358.5C 191.457,357.428 185.79,355.262 180.5,352C 178.21,350.223 176.543,348.056 175.5,345.5 Z"/></g>
<g><path style="opacity:1" fill="#e3aa29" d="M 113.5,278.5 C 115.584,281.801 116.918,285.468 117.5,289.5C 118.822,295.828 120.155,302.161 121.5,308.5C 119.665,312.005 120.165,315.005 123,317.5C 123.743,328.86 123.577,340.193 122.5,351.5C 122.123,353.258 121.456,354.925 120.5,356.5C 121.425,357.562 122.425,357.562 123.5,356.5C 123.461,357.583 123.127,358.583 122.5,359.5C 114.238,367.743 104.238,371.743 92.5,371.5C 91.7135,375.07 90.3801,378.403 88.5,381.5C 88.2193,375.866 90.5526,372.033 95.5,370C 88.1404,367.325 81.8071,363.158 76.5,357.5C 81.9878,359.21 87.6545,360.543 93.5,361.5C 104.753,359.957 112.587,353.957 117,343.5C 119.981,329.267 120.314,314.933 118,300.5C 117.667,300.833 117.333,301.167 117,301.5C 114.795,297.573 114.295,293.573 115.5,289.5C 115.124,285.76 114.457,282.094 113.5,278.5 Z"/></g>
<g><path style="opacity:1" fill="#e4a92a" d="M 322.5,353.5 C 329.895,362.284 335.229,372.284 338.5,383.5C 339.968,388.714 340.635,394.047 340.5,399.5C 337.833,399.5 335.167,399.5 332.5,399.5C 332.585,383.311 329.252,367.978 322.5,353.5 Z"/></g>
<g><path style="opacity:1" fill="#bb9a47" d="M 88.5,381.5 C 88.6382,386.414 87.9715,391.081 86.5,395.5C 86.3618,390.586 87.0285,385.919 88.5,381.5 Z"/></g>
<g><path style="opacity:1" fill="#f0cd39" d="M 79.5,399.5 C 74.5,399.5 69.5,399.5 64.5,399.5C 64.2846,395.549 66.1179,393.216 70,392.5C 72.8192,392.993 75.3192,394.16 77.5,396C 78.8228,396.816 79.4894,397.983 79.5,399.5 Z"/></g>
<g><path style="opacity:1" fill="#cb9739" d="M 338.5,383.5 C 340.943,388.5 342.61,393.834 343.5,399.5C 342.5,399.5 341.5,399.5 340.5,399.5C 340.635,394.047 339.968,388.714 338.5,383.5 Z"/></g>
</svg>
